<svg width="1440" height="161" viewBox="0 0 1440 161" fill="none" xmlns="http://www.w3.org/2000/svg">
<path fill-rule="evenodd" clip-rule="evenodd" d="M1299.11 72.7547C1254.84 50.8778 1208.54 27.9999 1128.59 27.9999C1058.52 27.9999 1012.72 42.858 963.021 58.9803C904.084 78.101 839.665 98.9998 722.762 98.9998C599.264 98.9998 527.729 81.285 466.66 66.162C421.179 54.8993 381.504 45.0741 330.492 45.0741C224.455 45.0741 167.451 66.595 118.094 85.2293C80.4117 99.4558 47.1862 112 4.22659e-06 112L6.19358e-06 89.5C48.0366 89.5 80.4395 72.1148 116.683 52.6689C162.673 27.9935 214.848 2.13135e-05 312.998 2.9894e-05C372.648 3.51087e-05 417.516 16.3002 467.604 34.4968C530.882 57.4851 602.492 83.5001 722.762 83.5001C839.665 83.5001 904.084 61.8654 963.021 42.0714C1012.72 25.3814 1058.52 10.0001 1128.59 10.0001C1207.53 10.0001 1273.46 36.4902 1326.22 57.6878C1375.85 77.6293 1413.82 92.8869 1440 77.0001L1440 160.346L1440 112C1378.52 112 1339.66 92.7974 1299.11 72.7547Z" fill="#2E7B7A"/>
</svg>
