<svg width="390" height="58" viewBox="0 0 390 58" fill="none" xmlns="http://www.w3.org/2000/svg">
<path d="M302.525 54.4708C343.588 54.4708 375.524 33.2113 390 42.1555L390 11.4075L0 10.3999L2.45137e-06 38.6288C29.2158 38.6288 36.8575 57.1999 83.9004 57.1999C120.09 57.1999 135.981 38.6288 193.74 38.6288C251.498 38.6288 261.461 54.4708 302.525 54.4708Z" fill="#2E7B7A"/>
<path d="M305.66 35.36C347.149 35.36 355.175 12.9281 389.999 12.9281L390 0.0253359L0.00106812 3.43239e-05L1.12267e-06 12.9282C29.5186 12.9282 38.8645 30.8004 89.508 30.8004C121.875 30.8004 137.391 16.3997 195.748 16.3997C254.105 16.3997 264.171 35.36 305.66 35.36Z" fill="#1E6864"/>
</svg>
