<svg width="794" height="104" viewBox="0 0 794 104" fill="none" xmlns="http://www.w3.org/2000/svg">
<path d="M171.697 86.6834C87.2333 86.6834 70.8943 39.5547 3.39823e-06 39.5547L0 0.0532301L793.961 0V39.5547C733.867 39.5547 714.841 77.1038 611.74 77.1038C545.848 77.1038 514.261 46.8484 395.457 46.8484C276.654 46.8484 256.161 86.6834 171.697 86.6834Z" fill="#1E6864"/>
<path fill-rule="evenodd" clip-rule="evenodd" d="M77.6831 51.4851C102.092 63.7592 127.617 76.5951 171.697 76.5951C210.336 76.5951 235.588 68.2588 262.988 59.2133C295.484 48.4855 331.002 36.76 395.457 36.76C463.55 36.76 502.992 46.6991 536.663 55.1839C561.739 61.5029 583.615 67.0154 611.74 67.0154C670.205 67.0154 701.635 54.9409 728.848 44.486C749.625 36.5042 767.944 29.4663 793.961 29.4663V53.6971C767.475 53.6971 749.61 63.4511 729.626 74.3614C704.269 88.2057 675.502 103.912 621.386 103.912C588.497 103.912 563.759 94.7663 536.142 84.557C501.253 71.6593 461.77 57.0634 395.457 57.0634C331.002 57.0634 295.484 69.2017 262.988 80.3073C235.588 89.6713 210.336 98.3011 171.697 98.3011C128.176 98.3011 91.8242 83.4386 62.7354 71.5456C35.3704 60.3573 14.4329 51.7969 0 60.7103L0 13.9116L3.39823e-06 29.4663C33.8961 29.4663 55.3209 40.24 77.6831 51.4851Z" fill="#2E7B7A"/>
</svg>
