<svg width="390" height="51" viewBox="0 0 390 51" fill="none" xmlns="http://www.w3.org/2000/svg">
<path d="M84.3398 2.70823C42.8505 2.70823 14.6266 29.7305 0.000976562 20.8541V43.4448H390V24.2395C360.481 24.2395 352.76 -0.000106812 305.23 -0.000106812C268.665 -0.000106812 252.609 22.6145 194.252 22.6145C135.895 22.6145 125.829 2.70823 84.3398 2.70823Z" fill="#3DF7FF"/>
<path d="M84.3399 17.9895C42.8506 17.9895 34.8248 40.7396 0.00105794 40.7396L0 50.8254L389.999 50.8511L390 40.7396C360.481 40.7396 351.136 22.6138 300.492 22.6138C268.125 22.6138 252.609 37.2187 194.252 37.2187C135.895 37.2187 125.829 17.9895 84.3399 17.9895Z" fill="#0C3F3D"/>
</svg>
