<svg width="1440" height="162" viewBox="0 0 1440 162" fill="none" xmlns="http://www.w3.org/2000/svg">
<path d="M311.408 151.912C158.217 151.912 54.0061 52.1373 0.00390625 84.9116V1.5H1440V72.4116C1331 72.4116 1302.5 161.912 1127 161.912C991.993 161.912 932.709 78.4116 717.238 78.4116C501.766 78.4116 464.599 151.912 311.408 151.912Z" fill="#3DF7FF"/>
<path d="M311.408 132.412C158.217 132.412 128.584 48.4116 0.00390623 48.4116L0 0.0948747L1439.99 0L1440 48.4116C1331 48.4116 1296.5 115.337 1109.51 115.337C989.999 115.337 932.709 61.4116 717.238 61.4116C501.766 61.4116 464.599 132.412 311.408 132.412Z" fill="#0C3F3D"/>
</svg>
