<svg width="1440" height="85" viewBox="0 0 1440 85" fill="none" xmlns="http://www.w3.org/2000/svg">
<mask id="mask0_2033_114" style="mask-type:alpha" maskUnits="userSpaceOnUse" x="0" y="0" width="1440" height="85">
<rect width="1440" height="85" fill="#D9D9D9"/>
</mask>
<g mask="url(#mask0_2033_114)">
<path d="M311.406 85C158.214 85 54.0024 -5.27429 0 27.5V-108H1440V15C1331.01 15 1302.5 73 1127 73C991.994 73 932.71 27.5 717.238 27.5C501.765 27.5 464.597 85 311.406 85Z" fill="#327B7B"/>
<path d="M311.406 56.5C158.214 56.5 128.58 4 0 4V-106.905L1440 -107V4C1331.01 4 1297.49 36 1110.5 36C990.992 36 932.71 17 717.238 17C501.765 17 464.597 56.5 311.406 56.5Z" fill="#1E6864"/>
</g>
</svg>
