<svg width="339" height="49" viewBox="0 0 339 49" fill="none" xmlns="http://www.w3.org/2000/svg">
<path d="M72.7379 46.0051C36.7805 46.0051 12.7498 22.3072 0.0742188 30V10.7002H338.074V27.3447C312.491 27.3447 305.37 48.3523 264.176 48.3523C232.487 48.3523 218.572 28.753 167.996 28.753C117.419 28.753 108.695 46.0051 72.7379 46.0051Z" fill="url(#paint0_linear_2079_105)"/>
<path d="M73.9847 30.1271C38.1176 30.1271 30.1794 11.7002 0.0745484 11.7002L0.0740223 0H338.076L338.077 11.7002C312.558 11.7002 304.627 26.3816 260.846 26.3816C232.866 26.3816 219.452 14.552 169.003 14.552C118.554 14.552 109.852 30.1271 73.9847 30.1271Z" fill="white"/>
<defs>
<linearGradient id="paint0_linear_2079_105" x1="23.0099" y1="29.8073" x2="307.839" y2="110.407" gradientUnits="userSpaceOnUse">
<stop stop-color="#F276D3"/>
<stop offset="0.3" stop-color="#5A91FF"/>
<stop offset="0.835" stop-color="#3EF8FF"/>
</linearGradient>
</defs>
</svg>
