<svg width="390" height="83" viewBox="0 0 390 83" fill="none" xmlns="http://www.w3.org/2000/svg">
<path d="M84.3424 2.70837C42.8533 2.70837 14.6295 29.7304 0.00390625 20.8541L0.0039295 51.5H390.001L390.001 24.2395C360.483 24.2395 352.762 5.34058e-05 305.232 5.34058e-05C268.667 5.34058e-05 252.611 22.6145 194.254 22.6145C135.898 22.6145 125.831 2.70837 84.3424 2.70837Z" fill="#327B7B"/>
<path d="M84.3385 27.9892C42.8494 27.9892 34.8236 50.7391 0 50.7391V81.9995L389.997 82.0252L389.997 50.7391C360.479 50.7391 351.133 32.6135 300.49 32.6135C268.123 32.6135 252.607 47.2183 194.251 47.2183C135.894 47.2183 125.828 27.9892 84.3385 27.9892Z" fill="#1E6864"/>
</svg>
