<svg width="790" height="180" viewBox="0 0 790 180" fill="none" xmlns="http://www.w3.org/2000/svg">
<path d="M170.839 173.751C86.7974 173.751 29.6261 119.014 0 136.995V91.2344H789.994V130.137C730.2 130.137 714.561 179.237 618.282 179.237C544.215 179.237 511.691 133.429 393.482 133.429C275.272 133.429 254.881 173.751 170.839 173.751Z" fill="url(#paint0_linear_2004_491)"/>
<path d="M170.845 163C86.8036 163 70.5465 116.044 0.0065918 116.044L0 0.553035L789.992 0.5L790 116.044C730.206 116.044 711.275 153.456 608.69 153.456C543.127 153.456 511.697 123.311 393.487 123.311C275.278 123.311 254.887 163 170.845 163Z" fill="white"/>
<defs>
<linearGradient id="paint0_linear_2004_491" x1="53.6067" y1="135.893" x2="719.327" y2="324.275" gradientUnits="userSpaceOnUse">
<stop stop-color="#F276D3"/>
<stop offset="0.3" stop-color="#5A91FF"/>
<stop offset="0.835" stop-color="#3EF8FF"/>
</linearGradient>
</defs>
</svg>
