<svg width="1440" height="192" viewBox="0 0 1440 192" fill="none" xmlns="http://www.w3.org/2000/svg">
<path d="M311.406 192C158.214 192 54.0024 102.193 0 134.798V0H1440V122.363C1331.01 122.363 1302.5 180.062 1127 180.062C991.994 180.062 932.71 134.798 717.238 134.798C501.765 134.798 464.597 192 311.406 192Z" fill="#327B7B"/>
<path d="M311.406 163.5C158.214 163.5 128.58 111 0 111V0.0948747L1440 0V111C1331.01 111 1297.49 143 1110.5 143C990.992 143 932.71 124 717.238 124C501.765 124 464.597 163.5 311.406 163.5Z" fill="#1E6864"/>
</svg>
