<svg width="80" height="86" viewBox="0 0 80 86" fill="none" xmlns="http://www.w3.org/2000/svg">
<path fill-rule="evenodd" clip-rule="evenodd" d="M0.785491 0.411168C1.66304 -0.259644 2.91823 -0.0920535 3.58904 0.785491L35.589 42.6474C36.1463 43.3764 36.136 44.3912 35.5639 45.1087L3.56394 85.2469C2.87537 86.1105 1.61702 86.2525 0.753341 85.5639C-0.110342 84.8754 -0.2523 83.617 0.436268 82.7533L31.4629 43.8361L0.411168 3.21472C-0.259644 2.33717 -0.0920535 1.08198 0.785491 0.411168Z" fill="#F276BA"/>
<path fill-rule="evenodd" clip-rule="evenodd" d="M22.7856 0.411168C23.6631 -0.259644 24.9183 -0.0920535 25.5891 0.785491L57.5891 42.6474C58.1464 43.3764 58.1361 44.3912 57.564 45.1087L25.564 85.2469C24.8755 86.1105 23.6171 86.2525 22.7534 85.5639C21.8897 84.8754 21.7478 83.617 22.4364 82.7533L53.463 43.8361L22.4113 3.21472C21.7404 2.33717 21.908 1.08198 22.7856 0.411168Z" fill="#5A91FF"/>
<path fill-rule="evenodd" clip-rule="evenodd" d="M44.7857 0.411168C45.6632 -0.259644 46.9184 -0.0920535 47.5893 0.785491L79.5893 42.6474C80.1466 43.3764 80.1362 44.3912 79.5642 45.1087L47.5642 85.2469C46.8756 86.1105 45.6172 86.2525 44.7536 85.5639C43.8899 84.8754 43.7479 83.617 44.4365 82.7533L75.4631 43.8361L44.4114 3.21472C43.7406 2.33717 43.9082 1.08198 44.7857 0.411168Z" fill="#3DF7FF"/>
</svg>
