<svg width="52" height="52" viewBox="0 0 52 52" fill="none" xmlns="http://www.w3.org/2000/svg">
<path fill-rule="evenodd" clip-rule="evenodd" d="M25.1011 1.00201C25.4991 0.491475 26.27 0.487949 26.6727 0.994819L27.279 1.75802C27.6379 2.2097 28.3035 2.2649 28.7318 1.87851L29.4556 1.2256C29.9363 0.792066 30.6959 0.922419 31.0045 1.49139L31.4695 2.34871C31.7445 2.85575 32.3902 3.02563 32.8791 2.71955L33.7052 2.20239C34.2538 1.85895 34.9791 2.1192 35.1843 2.73305L35.4933 3.65773C35.6761 4.20479 36.2825 4.48419 36.8171 4.26765L37.7206 3.9017C38.3205 3.65871 38.9898 4.04103 39.0851 4.68123L39.2288 5.64586C39.3138 6.2165 39.8627 6.59703 40.4269 6.47644L41.3795 6.27284C42.0126 6.13751 42.6054 6.63029 42.5881 7.27746L42.5621 8.25219C42.5467 8.82887 43.0211 9.29894 43.5976 9.27826L44.5719 9.2433C45.2189 9.22009 45.7171 9.80841 45.5876 10.4427L45.3927 11.3973C45.2772 11.9626 45.6628 12.508 46.2342 12.5878L47.1994 12.7225C47.8405 12.8119 48.2289 13.4776 47.9915 14.0798L47.6338 14.9866C47.4222 15.5231 47.7071 16.127 48.2558 16.3048L49.1833 16.6054C49.7991 16.8049 50.0659 17.5279 49.7274 18.0796L49.2173 18.911C48.9156 19.4027 49.0914 20.047 49.601 20.3174L50.4623 20.7742C51.0342 21.0776 51.1714 21.8362 50.7422 22.3208L50.0958 23.0503C49.7132 23.4822 49.7745 24.1473 50.2295 24.502L50.9979 25.1012C51.5085 25.4993 51.512 26.2702 51.0051 26.6728L50.2419 27.2791C49.7901 27.638 49.7349 28.3037 50.1214 28.7321L50.7746 29.456C51.2083 29.9366 51.0779 30.6965 50.5088 31.005L49.6518 31.4696C49.1446 31.7446 48.9746 32.3906 49.2809 32.8796L49.7979 33.705C50.1415 34.2536 49.8813 34.9791 49.2674 35.1843L48.3422 35.4934C47.7951 35.6762 47.5157 36.2829 47.7324 36.8175L48.0985 37.7207C48.3417 38.3206 47.9594 38.9901 47.3191 39.0854L46.3548 39.2291C45.7843 39.3141 45.4038 39.8627 45.5241 40.4268L45.7275 41.3803C45.8625 42.0132 45.3699 42.6058 44.7229 42.5885L43.7487 42.5626C43.1721 42.5472 42.7021 43.0216 42.7227 43.598L42.7576 44.5726C42.7807 45.2196 42.1923 45.7177 41.558 45.5881L40.6033 45.393C40.0381 45.2776 39.4926 45.663 39.4128 46.2344L39.2779 47.1998C39.1883 47.8408 38.5225 48.2291 37.9204 47.9916L37.0136 47.6337C36.477 47.422 35.8731 47.7069 35.6952 48.2556L35.3945 49.1835C35.1949 49.7993 34.4718 50.0661 33.9201 49.7275L33.0897 49.2178C32.598 48.916 31.9537 49.0917 31.6833 49.6013L31.2261 50.4627C30.9226 51.0346 30.164 51.1717 29.6795 50.7424L28.9505 50.0963C28.5187 49.7136 27.8535 49.7748 27.4987 50.2298L26.8996 50.9981C26.5015 51.5086 25.7307 51.5121 25.328 51.0052L24.7217 50.2421C24.3628 49.7904 23.6972 49.7352 23.2689 50.1217L22.5449 50.775C22.0642 51.2087 21.3044 51.0783 20.9959 50.5091L20.5312 49.652C20.2563 49.1448 19.6103 48.9749 19.1213 49.2811L18.2953 49.7984C17.7466 50.1421 17.0209 49.8816 16.816 49.2674L16.5076 48.3431C16.3249 47.7957 15.7181 47.5161 15.1833 47.7329L14.2798 48.0991C13.6798 48.3423 13.0103 47.9599 12.915 47.3195L12.7716 46.3554C12.6868 45.7848 12.138 45.4041 11.5738 45.5245L10.6203 45.728C9.98728 45.8631 9.39464 45.3703 9.412 44.7232L9.43814 43.7492C9.45361 43.1725 8.97927 42.7024 8.40275 42.723L7.4284 42.7579C6.78141 42.781 6.2833 42.1926 6.41288 41.5583L6.60795 40.6035C6.72342 40.0383 6.338 39.4929 5.76666 39.413L4.80016 39.2778C4.15913 39.1882 3.77084 38.5225 4.00845 37.9204L4.36618 37.0139C4.57795 36.4773 4.29302 35.8733 3.74423 35.6955L2.81662 35.395C2.2008 35.1954 1.93396 34.4723 2.27258 33.9206L2.78234 33.09C3.08406 32.5984 2.90848 31.9542 2.39906 31.6837L1.53758 31.2263C0.965987 30.9227 0.828882 30.1645 1.25799 29.68L1.90419 28.9505C2.28663 28.5187 2.2255 27.8538 1.77073 27.499L1.00168 26.899C0.491298 26.5008 0.487985 25.73 0.994925 25.3274L1.75777 24.7217C2.20957 24.3629 2.26489 23.6973 1.87853 23.2688L1.22529 22.5445C0.791767 22.0637 0.922309 21.304 1.49144 20.9956L2.34826 20.5312C2.85548 20.2563 3.02552 19.6104 2.71939 19.1214L2.20221 18.2953C1.85872 17.7466 2.11916 17.0211 2.7332 16.8161L3.65729 16.5076C4.20452 16.325 4.48409 15.7184 4.26753 15.1837L3.90141 14.2797C3.6584 13.6797 4.04085 13.0104 4.68116 12.9152L5.6456 12.7718C6.21633 12.6869 6.59699 12.1379 6.47641 11.5737L6.27276 10.6207C6.13746 9.98756 6.6303 9.39471 7.27749 9.41207L8.25202 9.43821C8.82874 9.45368 9.29888 8.97926 9.27819 8.40271L9.24324 7.42878C9.22003 6.7818 9.80835 6.28362 10.4427 6.41314L11.3972 6.60805C11.9625 6.72349 12.5079 6.33788 12.5877 5.76644L12.7224 4.80062C12.8119 4.15944 13.4777 3.77095 14.0799 4.0086L14.9868 4.36648C15.5234 4.57827 16.1275 4.29321 16.3052 3.7443L16.6055 2.81688C16.8049 2.20096 17.5281 1.93398 18.0799 2.27257L18.9107 2.78236C19.4023 3.08406 20.0466 2.90833 20.317 2.39878L20.7738 1.53792C21.0772 0.966195 21.8355 0.828921 22.3201 1.25802L23.0502 1.90451C23.482 2.28695 24.147 2.22566 24.5017 1.77072L25.1011 1.00201Z" fill="url(#paint0_linear_2004_452)"/>
<path fill-rule="evenodd" clip-rule="evenodd" d="M26.0005 14.2077C32.4954 14.2077 37.7928 19.5051 37.7928 26.0001C37.7928 32.495 32.4954 37.7925 26.0005 37.7925C19.5056 37.7925 14.2082 32.495 14.2082 26.0001C14.2082 19.5051 19.5056 14.2077 26.0005 14.2077ZM41.1129 25.0257C41.6502 25.0257 42.0883 25.4637 42.0883 26.0001C42.0883 26.5364 41.6502 26.9755 41.1129 26.9755C40.5755 26.9755 40.1385 26.5374 40.1385 26.0001C40.1385 25.4627 40.5755 25.0257 41.1129 25.0257ZM10.8881 25.0257C11.4255 25.0257 11.8636 25.4637 11.8636 26.0001C11.8636 26.5364 11.4255 26.9755 10.8881 26.9755C10.3508 26.9755 9.91376 26.5374 9.91376 26.0001C9.91376 25.4627 10.3518 25.0257 10.8881 25.0257ZM26.0005 7.10364C36.4086 7.10364 44.8965 15.5926 44.8965 25.9997C44.8965 36.4069 36.4086 44.8958 26.0005 44.8958C15.5924 44.8958 7.10419 36.4082 7.10419 26.0001C7.10419 15.5919 15.5931 7.10364 26.0005 7.10364Z" fill="#134A47"/>
<path d="M25.7251 11.095L24.763 8.15137L25.5969 8.16599L26.1258 9.9818L26.7155 8.18538L27.5549 8.2L26.4839 11.1075L26.4472 13.2145L25.6884 13.2016L25.7251 11.0946V11.095Z" fill="white"/>
<path d="M28.5 13.4696L29.8039 8.6095L30.9018 8.90437C31.1909 8.98157 31.4306 9.12747 31.6225 9.34242C31.7878 9.52437 31.8762 9.76313 31.8881 10.058C31.8962 10.2151 31.8731 10.3933 31.819 10.5916C31.7327 10.9178 31.5745 11.1555 31.3497 11.3062C31.2558 11.3688 31.1524 11.4099 31.0433 11.4266C31.1892 11.5323 31.2949 11.6918 31.3589 11.9061C31.4004 12.0503 31.4133 12.2265 31.3966 12.4323C31.3885 12.538 31.3674 12.6526 31.3334 12.7758C31.2518 13.0842 31.1229 13.3288 30.9487 13.5124C30.8127 13.6576 30.6491 13.7566 30.4573 13.8137C30.2406 13.877 30.0403 13.8835 29.8577 13.8348L28.5003 13.4702L28.5 13.4696ZM29.4856 12.958L29.7914 13.0397C30.0403 13.1067 30.2451 13.025 30.4103 12.7945C30.4675 12.7156 30.5114 12.619 30.5416 12.5054C30.6144 12.2336 30.6161 12.0224 30.5454 11.8718C30.4828 11.7323 30.3617 11.6385 30.1808 11.5898L29.875 11.5082L29.486 12.9584L29.4856 12.958ZM30.0631 10.8062L30.3689 10.8878C30.5957 10.9494 30.7783 10.8787 30.9161 10.6777C30.9664 10.6022 31.0079 10.5039 31.0399 10.3828C31.095 10.1818 31.0858 10.0155 31.0161 9.8859C30.9511 9.76653 30.8464 9.6866 30.7022 9.64817L30.3954 9.56553L30.0628 10.8062H30.0631Z" fill="white"/>
<path d="M22.0431 13.7989L20.9089 8.89465L23.0117 8.40967L23.1835 9.15177L21.8186 9.46671L22.1281 10.8047L23.1256 10.5751L23.2974 11.3172L22.3002 11.5468L22.6087 12.8851L23.9732 12.5701L24.146 13.3122L22.0428 13.7989H22.0431Z" fill="white"/>
<path d="M32.8765 13.8708L32.1078 14.7534L31.4375 14.3348L34.828 10.5236L35.7132 11.0762L33.7624 15.7897L33.0856 15.3653L33.5475 14.2909L32.8761 13.8712L32.8765 13.8708ZM34.6572 11.7741L33.3679 13.308L33.8444 13.6056L34.6572 11.7741Z" fill="white"/>
<path d="M17.6256 10.257L20.0135 12.856L18.5303 9.81519L19.2125 9.48291L21.4194 14.008L20.6865 14.3651L18.3344 11.9259L19.7478 14.8235L19.0663 15.1562L16.8594 10.6301L17.6256 10.2573V10.257Z" fill="white"/>
<path d="M34.9988 17.0487C34.7655 16.8072 34.6536 16.5215 34.6591 16.191C34.6648 15.8594 34.7869 15.5784 35.0257 15.3489L37.0013 13.4406C37.2418 13.2083 37.5285 13.0953 37.8608 13.1025C38.1934 13.109 38.4743 13.2321 38.7049 13.4718C38.9375 13.7123 39.0494 13.9973 39.0423 14.3296C39.0338 14.6602 38.9117 14.9414 38.6729 15.171L38.2597 15.5706L37.7125 15.004L38.1366 14.5945C38.223 14.5109 38.2682 14.4088 38.2709 14.2867C38.2726 14.1663 38.2325 14.0616 38.1485 13.9755C38.0648 13.8881 37.9621 13.8449 37.8427 13.8432C37.7217 13.8432 37.6186 13.8837 37.5322 13.9674L35.5501 15.8805C35.4637 15.9641 35.4188 16.0658 35.4178 16.1852C35.4151 16.3046 35.4563 16.4073 35.5399 16.4937C35.6236 16.58 35.7256 16.626 35.8457 16.6277C35.965 16.6314 36.0681 16.5909 36.1552 16.5073L36.6538 16.025L37.201 16.5906L36.6956 17.0793C36.4548 17.3109 36.1684 17.4238 35.8379 17.4157C35.5073 17.4082 35.2264 17.2851 34.9985 17.049L34.9988 17.0487Z" fill="white"/>
<path d="M14.3378 12.4647C14.5939 12.2498 14.887 12.1569 15.2186 12.1865C15.5482 12.2178 15.8209 12.3593 16.0342 12.6127L17.7986 14.7159C18.0146 14.973 18.1071 15.2658 18.0758 15.5967C18.0462 15.9273 17.9047 16.2001 17.6507 16.4133C17.3946 16.6283 17.1007 16.7201 16.7719 16.6888C16.4423 16.6585 16.1712 16.516 15.9563 16.2616L14.1929 14.1584C13.9776 13.9023 13.8844 13.6085 13.9143 13.2776C13.9446 12.947 14.0851 12.6769 14.3378 12.4647ZM15.4176 13.1085C15.3407 13.0167 15.2424 12.9654 15.1237 12.9541C15.0061 12.9449 14.8996 12.9779 14.8068 13.0551C14.7149 13.1323 14.6636 13.2317 14.6517 13.351C14.6408 13.4704 14.6738 13.5769 14.7506 13.6687L16.5205 15.7783C16.5977 15.8702 16.696 15.9215 16.8154 15.9307C16.9365 15.9399 17.0422 15.9059 17.1341 15.8287C17.2269 15.7515 17.2783 15.6522 17.2874 15.5348C17.2987 15.4155 17.2653 15.3107 17.1881 15.2189L15.4176 13.1082V13.1085Z" fill="white"/>
<path d="M38.0977 18.1814L36.7145 18.9797L36.3359 18.3229L40.6957 15.8048L41.0749 16.4626L39.521 17.3598L41.5388 17.2652L41.9439 17.9668L39.6461 18.0937L37.6732 20.6394L37.2267 19.866L38.599 18.1539L38.0973 18.1814H38.0977Z" fill="white"/>
<path d="M14.6706 19.9554L14.2574 20.5911L10.0364 17.8488L10.6296 16.9367L14.0459 18.3134L11.3846 15.7749L11.9546 14.8971L16.1749 17.6393L15.7617 18.2747L13.1092 16.5517L15.4036 18.8273L15.0709 19.3382L12.0247 18.2362L14.6706 19.9554Z" fill="white"/>
<path d="M10.5534 35.2772C10.3854 34.987 10.346 34.682 10.4324 34.3606C10.5188 34.0409 10.7051 33.7967 10.9908 33.6331L13.3678 32.2591C13.6579 32.0921 13.963 32.0516 14.2843 32.1397C14.604 32.2261 14.8482 32.4135 15.0145 32.7009C15.1815 32.9903 15.2213 33.295 15.1329 33.6147C15.0465 33.9344 14.8591 34.1769 14.5711 34.3429L14.0742 34.6303L13.6803 33.9477L14.1918 33.6528C14.2956 33.5923 14.3636 33.5042 14.3949 33.3865C14.4272 33.2699 14.4126 33.1597 14.352 33.0542C14.2925 32.9505 14.2041 32.8835 14.0864 32.8539C13.9708 32.8226 13.8606 32.8373 13.7558 32.8981L11.3717 34.2759C11.267 34.3354 11.1993 34.4228 11.168 34.5385C11.1388 34.6544 11.1534 34.7626 11.2129 34.8673C11.2734 34.9717 11.3608 35.0398 11.4765 35.0731C11.5921 35.1044 11.7023 35.0904 11.8064 35.0306L12.6624 34.5368L12.4519 34.1711L13.112 33.7892L13.7164 34.836L12.1937 35.7159C11.9047 35.8829 11.5996 35.9217 11.2799 35.8353C10.9605 35.7472 10.7181 35.5615 10.5545 35.2768L10.5534 35.2772Z" fill="white"/>
<path d="M40.8562 36.0689L36.5417 33.477L37.6538 31.6255L38.3068 32.0186L37.5858 33.2192L38.7622 33.9263L39.2894 33.0492L39.9434 33.4423L39.4162 34.3184L40.5936 35.0255L41.3157 33.8249L41.9687 34.2171L40.8562 36.0686V36.0689Z" fill="white"/>
<path d="M13.4309 38.8359C13.1939 38.5988 13.0765 38.3159 13.0755 37.9863C13.0765 37.6574 13.1932 37.3755 13.4272 37.1415L16.1786 34.3907L16.7037 34.9162L13.9577 37.6602C13.8734 37.7455 13.8309 37.8476 13.8326 37.9686C13.8326 38.088 13.8758 38.1911 13.9611 38.2754C14.0455 38.3618 14.1485 38.404 14.2679 38.404C14.3873 38.404 14.4883 38.3614 14.5736 38.2764L17.3189 35.5311L17.8774 36.0896L15.1266 38.8413C14.8889 39.0801 14.6039 39.1974 14.2761 39.193C13.9465 39.1893 13.6646 39.0699 13.4302 38.8359H13.4309Z" fill="white"/>
<path d="M38.0934 39.2714L34.4714 35.7741L35.9712 34.2202L36.5205 34.7494L35.5468 35.7578L36.5351 36.7132L37.2459 35.9765L37.7952 36.5054L37.0833 37.242L38.0707 38.1953L39.0444 37.1869L39.5936 37.7178L38.0938 39.2718L38.0934 39.2714Z" fill="white"/>
<path d="M17.4363 40.4317L16.6677 41.3153L15.9974 40.8966L19.3882 37.0854L20.2735 37.6381L18.3226 42.3496L17.6458 41.9272L18.1077 40.8528L17.4363 40.4321V40.4317ZM19.2171 38.336L17.9274 39.8688L18.4039 40.1675L19.2168 38.336H19.2171Z" fill="white"/>
<path d="M32.6807 37.9233L32.0121 38.3733L31.5859 37.7414L33.5493 36.417L33.9755 37.0496L33.3096 37.4989L35.6947 41.0356L35.0658 41.459L32.6807 37.9233Z" fill="white"/>
<path d="M22.8195 38.4911C23.2293 38.5932 23.502 38.7816 23.6377 39.056C23.7571 39.2948 23.7728 39.5914 23.6847 39.9441L23.5082 40.6542C23.4218 40.9987 23.2181 41.2585 22.8956 41.431L22.9093 43.6978L22.1131 43.4991L22.125 41.5493C22.1046 41.5449 22.0828 41.5391 22.06 41.533L21.6349 41.4272L21.1758 43.2648L20.4401 43.0812L21.658 38.2007L22.8198 38.4908L22.8195 38.4911ZM22.9647 39.7771C23.0354 39.4941 22.9317 39.3179 22.6504 39.2482L22.2059 39.137L21.8165 40.6994L22.26 40.8096C22.3777 40.8389 22.4868 40.8225 22.5899 40.76C22.6929 40.6977 22.7569 40.6066 22.7865 40.4899L22.9647 39.7771Z" fill="white"/>
<path d="M29.3788 38.4403L31.279 41.4142L30.3468 38.1621L31.0759 37.9536L32.4629 42.7909L31.6786 43.0157L29.7887 40.2054L30.676 43.3034L29.9465 43.5119L28.5599 38.6746L29.3792 38.4403H29.3788Z" fill="white"/>
<path d="M25.946 42.7606L25.8229 43.9245L25.0339 43.9656L25.6226 38.8977L26.664 38.8427L27.7717 43.8221L26.9755 43.8636L26.7368 42.7181L25.946 42.7603V42.7606ZM26.2004 40.0221L26.0249 42.0168L26.5861 41.9876L26.2004 40.0221Z" fill="white"/>
<path d="M25.9993 5.45853H25.9976C20.3411 5.45853 15.2062 7.76544 11.4859 11.4868C7.76448 15.2072 5.45724 20.3431 5.45724 25.9994V26.0004C5.45724 31.657 7.76414 36.7915 11.4859 40.5129C15.2066 44.2336 20.3421 46.5406 25.9986 46.5406H25.9996C31.6559 46.5406 36.7907 44.2336 40.5121 40.5129C44.2328 36.7915 46.5397 31.6566 46.5407 25.9994V25.9983C46.5397 20.3418 44.2335 15.2069 40.5121 11.4865C36.791 7.7651 31.6559 5.45819 25.9996 5.45819M25.9986 4.95959H25.9996C31.7939 4.95959 37.0536 7.32263 40.8648 11.1338C44.6759 14.9453 47.0383 20.205 47.0383 25.9983V25.9994C47.0383 31.7937 44.6753 37.0541 40.8637 40.8656C37.0533 44.6771 31.7936 47.0391 25.9993 47.0391H25.9983C20.204 47.0391 14.9437 44.6761 11.1328 40.8646C7.32167 37.0541 4.95831 31.7944 4.95831 26V25.999C4.95831 20.2047 7.32133 14.9443 11.1328 11.1338C14.9443 7.32263 20.204 4.95959 25.9973 4.95959H25.9983H25.9986Z" fill="#134A47"/>
<path d="M24.4465 27.1701L20.8842 23.5073L18.6875 25.766L24.4465 31.6875L33.3125 22.5712L31.1158 20.3125L24.4465 27.1701Z" fill="#FFF8E8"/>
<defs>
<linearGradient id="paint0_linear_2004_452" x1="3.52857" y1="26.3881" x2="50.8104" y2="27.8785" gradientUnits="userSpaceOnUse">
<stop stop-color="#F276D3"/>
<stop offset="0.3" stop-color="#5A91FF"/>
<stop offset="0.835" stop-color="#3EF8FF"/>
</linearGradient>
</defs>
</svg>
